Coordinates
version=1
nRows=11
nColumns=63
inDegrees=yes

Units are S.I. units (second, meters, Newtons, ...)
If the header above contains a line with 'inDegrees', this indicates whether rotational values are in degrees (yes) or radians (no).

endheader
time	pelvis_tilt	pelvis_list	pelvis_rotation	pelvis_tx	pelvis_ty	pelvis_tz	hip_flexion_r	hip_adduction_r	hip_rotation_r	knee_angle_r	knee_angle_r_beta	ankle_angle_r	subtalar_angle_r	mtp_angle_r	hip_flexion_l	hip_adduction_l	hip_rotation_l	knee_angle_l	knee_angle_l_beta	ankle_angle_l	subtalar_angle_l	mtp_angle_l	L5_S1_Flex_Ext	L5_S1_Lat_Bending	L5_S1_axial_rotation	L4_L5_Flex_Ext	L4_L5_Lat_Bending	L4_L5_axial_rotation	L3_L4_Flex_Ext	L3_L4_Lat_Bending	L3_L4_axial_rotation	L2_L3_Flex_Ext	L2_L3_Lat_Bending	L2_L3_axial_rotation	L1_L2_Flex_Ext	L1_L2_Lat_Bending	L1_L2_axial_rotation	L1_T12_Flex_Ext	L1_T12_Lat_Bending	L1_T12_axial_rotation	Abs_r3	Abs_r2	Abs_r1	Abs_t1	Abs_t2	neck_flexion	neck_bending	neck_rotation	arm_flex_r	arm_add_r	arm_rot_r	elbow_flex_r	pro_sup_r	wrist_flex_r	wrist_dev_r	arm_flex_l	arm_add_l	arm_rot_l	elbow_flex_l	pro_sup_l	wrist_flex_l	wrist_dev_l
3.717391	-1.021418	-1.542311	92.919014	0.197676	0.837454	0.595564	-2.826670	-0.933534	1.751668	3.442446	0.060082	16.641113	-8.216425	0.000000	-2.963599	0.783023	14.975377	0.468317	0.008174	13.120549	-15.566502	0.000000	0.332684	0.067059	-0.598851	0.617828	0.089189	-0.636279	0.546567	0.163047	-0.636279	0.380225	0.163047	-0.523994	0.308931	0.136747	-0.486566	0.190096	0.103874	-0.449138	2.376330	0.758585	-3.330627	0.000000	0.000000	28.587979	3.291469	15.831644	8.336670	-23.629438	48.779282	68.930278	79.018975	-5.516264	5.475132	0.200364	-24.608067	25.252497	75.469035	90.615473	-6.314067	2.527793
3.739130	-0.998792	-1.717387	92.648627	0.197615	0.836140	0.596385	-2.628417	-0.968368	2.312864	3.349693	0.058463	16.793431	-8.511505	0.000000	-2.692347	0.810950	14.612697	0.588855	0.010277	13.454006	-15.467060	0.000000	0.361740	0.077883	-0.517090	0.671787	0.103585	-0.549409	0.594302	0.189366	-0.549409	0.413432	0.189366	-0.452454	0.335911	0.158820	-0.420136	0.206698	0.120641	-0.387818	2.583870	0.881032	-2.875902	0.000000	0.000000	28.975662	3.831841	15.315617	8.786135	-22.819452	59.352808	58.411414	75.003462	-5.991660	3.705908	1.147179	-23.406394	32.227208	65.678592	89.143951	-8.250009	1.715787
3.760870	-0.957729	-1.808167	92.392821	0.197630	0.834842	0.596745	-2.545554	-0.966366	2.857226	3.236061	0.056480	16.928979	-8.831498	0.000000	-2.558916	0.803606	14.270622	0.644339	0.011246	13.873631	-15.289386	0.000000	0.387108	0.090530	-0.419927	0.718898	0.120405	-0.446172	0.635979	0.220114	-0.446172	0.442426	0.220114	-0.367436	0.359468	0.184608	-0.341191	0.221193	0.140231	-0.314945	2.765073	1.024091	-2.335508	0.000000	0.000000	29.051771	4.339090	14.673242	9.212141	-21.691314	71.614915	48.189615	70.126709	-6.429586	1.860492	2.280384	-22.031791	41.730129	55.843340	86.093272	-10.580572	0.432737
3.782609	-0.916121	-1.841406	92.202758	0.197659	0.833504	0.596781	-2.550682	-0.942286	3.380231	3.101905	0.054138	17.048835	-9.237797	0.000000	-2.505726	0.779915	14.110614	0.668964	0.011676	14.350660	-15.206581	0.000000	0.406475	0.102715	-0.335858	0.754866	0.136611	-0.356849	0.667798	0.249742	-0.356849	0.464561	0.249742	-0.293875	0.377453	0.209457	-0.272884	0.232260	0.159106	-0.251893	2.903413	1.161935	-1.867940	0.000000	0.000000	28.961849	4.892451	14.115522	9.630936	-20.309574	84.945131	38.571656	64.613149	-6.906773	0.010985	3.303799	-20.537375	52.914771	46.350995	81.755395	-12.290165	-0.830113
3.804348	-0.885918	-1.850913	92.066007	0.197721	0.832109	0.596543	-2.610243	-0.916361	3.845750	2.940861	0.051328	17.160542	-9.661468	0.000000	-2.491458	0.758241	14.004945	0.672149	0.011731	14.891180	-15.065626	0.000000	0.422343	0.111494	-0.253827	0.784333	0.148288	-0.269691	0.693867	0.271087	-0.269691	0.482695	0.271087	-0.222099	0.392187	0.227359	-0.206235	0.241327	0.172705	-0.190370	3.016752	1.261247	-1.411710	0.000000	0.000000	28.826108	5.424049	13.505610	9.897103	-18.765931	98.571334	29.901261	58.584554	-7.320799	-1.678058	4.233409	-18.988993	65.611203	37.415395	76.432489	-14.062130	-2.253873
3.826087	-0.861428	-1.842648	92.019815	0.197729	0.830684	0.596152	-2.715505	-0.881509	4.254148	2.761711	0.048201	17.245861	-10.151310	0.000000	-2.498748	0.731861	14.090634	0.665888	0.011622	15.402160	-15.026043	0.000000	0.435202	0.119868	-0.214393	0.808214	0.159425	-0.227792	0.714993	0.291448	-0.227792	0.497392	0.291448	-0.187594	0.404129	0.244436	-0.174194	0.248674	0.185676	-0.160794	3.108604	1.355975	-1.192388	0.000000	0.000000	28.650857	5.962051	13.147179	10.185620	-17.193756	111.905463	22.301921	51.134800	-7.535983	-3.102709	4.803923	-17.341563	78.861824	29.334425	69.634544	-14.689656	-3.156222
3.847826	-0.841396	-1.839972	92.049233	0.197682	0.829243	0.595661	-2.839566	-0.841380	4.589176	2.565136	0.044770	17.299869	-10.667374	0.000000	-2.502973	0.703150	14.324710	0.656752	0.011462	15.851303	-15.047410	0.000000	0.448054	0.127829	-0.202711	0.832081	0.170013	-0.215380	0.736108	0.310804	-0.215380	0.512081	0.310804	-0.177372	0.416063	0.260670	-0.164703	0.256018	0.198008	-0.152033	3.200404	1.446032	-1.127417	0.000000	0.000000	28.515459	6.463765	12.927156	10.341960	-15.690925	124.375564	15.970045	42.558944	-7.471114	-4.230803	5.160958	-15.651877	92.459311	22.259084	61.551350	-14.697487	-3.509946
3.869565	-0.825714	-1.851716	92.130330	0.197569	0.827802	0.595118	-2.967442	-0.802622	4.874486	2.356605	0.041131	17.335141	-11.192342	0.000000	-2.496660	0.676970	14.686791	0.643561	0.011232	16.232986	-15.127398	0.000000	0.461912	0.136940	-0.213554	0.857817	0.182130	-0.226901	0.758876	0.332955	-0.226901	0.527920	0.332955	-0.186860	0.428932	0.279247	-0.173513	0.263937	0.212119	-0.160166	3.299394	1.549088	-1.187725	0.000000	0.000000	28.436950	6.942258	12.897044	10.305702	-14.358829	135.390402	11.063380	33.441127	-7.387249	-4.990285	5.373252	-13.950816	106.205838	16.287430	52.493293	-14.199214	-3.503392
3.891304	-0.797712	-1.899935	92.242934	0.197344	0.826402	0.594610	-3.052309	-0.757281	5.087425	2.164607	0.037780	17.330676	-11.676908	0.000000	-2.450013	0.644366	15.162690	0.628321	0.010966	16.533053	-15.283109	0.000000	0.478959	0.150739	-0.242450	0.889474	0.200482	-0.257603	0.786881	0.366506	-0.257603	0.547402	0.366506	-0.212144	0.444761	0.307386	-0.196991	0.273677	0.233494	-0.181838	3.421155	1.705185	-1.348435	0.000000	0.000000	28.415161	7.435734	13.179649	10.110101	-13.277319	144.280672	7.529207	24.239769	-6.715431	-5.541084	5.478363	-12.270318	119.506034	11.483514	43.372394	-13.284465	-3.371732
3.913043	-0.770082	-2.001113	92.408245	0.197005	0.825076	0.594151	-3.083963	-0.717124	5.192927	1.973781	0.034449	17.285426	-12.104201	0.000000	-2.342779	0.618669	15.740940	0.611226	0.010668	16.759592	-15.497638	0.000000	0.503482	0.166573	-0.292495	0.935017	0.221543	-0.310776	0.827171	0.405007	-0.310776	0.575430	0.405007	-0.255933	0.467534	0.339677	-0.237652	0.287690	0.258022	-0.219371	3.596324	1.884312	-1.626768	0.000000	0.000000	28.410988	8.005699	13.771609	9.845873	-12.428283	150.401025	5.504490	15.709916	-5.788725	-5.774256	5.471087	-10.663915	131.756418	7.839591	34.687314	-12.099613	-3.413834
3.934783	-0.747792	-2.160878	92.618714	0.196610	0.823886	0.593749	-3.053566	-0.685758	5.234631	1.781043	0.031085	17.192390	-12.502180	0.000000	-2.168852	0.602293	16.387586	0.594350	0.010373	16.934217	-15.738327	0.000000	0.538513	0.181953	-0.353093	1.000072	0.241998	-0.375161	0.884722	0.442401	-0.375161	0.615466	0.442401	-0.308956	0.500063	0.371039	-0.286888	0.307706	0.281845	-0.264820	3.846541	2.058290	-1.963797	0.000000	0.000000	28.413695	8.567143	14.479386	9.594312	-11.669474	153.970224	4.800889	8.757070	-4.738945	-5.835170	5.480935	-9.229431	142.632596	5.282803	26.386957	-10.986976	-3.687772
